<svg xmlns="http://www.w3.org/2000/svg" viewBox="0 0 8 8">
  <path fill="#655a3d" d="M7.68.77A.77.77 0 0 0 6.91 0H.77A.77.77 0 0 0 0 .77V6.9c0 .43.34.77.77.77H6.9c.43 0 .77-.34.77-.77V.77Z"/>
  <path fill="#fff2d1" d="M1.44 6.72v-.27c.2-.01.35-.06.43-.15.07-.08.12-.2.12-.35l.02-.51V1.57l.02-.28-.59.03V.96h1.85v.27c-.2 0-.34.05-.42.14a.55.55 0 0 0-.13.36l-.02.51V3.6h.62l1.03-1.62a4.87 4.87 0 0 1 .58-.69 4.15 4.15 0 0 1-.5.02V.96h1.77v.27c-.23.02-.44.06-.62.12s-.35.16-.52.31c-.16.15-.34.38-.52.68l-.8 1.29c.15.09.28.2.38.32l.3.38.92 1.22c.2.28.38.48.51.6.13.14.26.22.36.25.11.03.22.05.34.05v.27h-1c-.06 0-.14-.04-.23-.11a19.93 19.93 0 0 1-.61-.7l-.99-1.33-.3-.39a1.53 1.53 0 0 0-.31-.28l-.4.01v1.82a19.9 19.9 0 0 1-.03.65l.6-.03v.36H1.43Z"/>
  <style>svg{filter:hue-rotate(0deg) invert(0%);}</style>
</svg>
